<mxfile host="app.diagrams.net" modified="2023-08-29T07:49:26.161Z" agent="Mozilla/5.0 (Macintosh; Intel Mac OS X 10_15_7) AppleWebKit/537.36 (KHTML, like Gecko) Chrome/116.0.0.0 Safari/537.36" etag="ffbkZk398n8_RcNWTDiV" version="21.3.0" type="github">
  <diagram name="Page-1" id="aU_AMGGKpdj2bVCXXEt4">
    <mxGraphModel dx="438" dy="289" grid="1" gridSize="10" guides="1" tooltips="1" connect="1" arrows="1" fold="1" page="1" pageScale="1" pageWidth="827" pageHeight="1169" math="0" shadow="0">
      <root>
        <mxCell id="0" />
        <mxCell id="1" parent="0" />
        <mxCell id="oOVCkCozOhcgD0pRocem-1" value="" style="endArrow=none;html=1;rounded=0;" edge="1" parent="1">
          <mxGeometry width="50" height="50" relative="1" as="geometry">
            <mxPoint x="200" y="470" as="sourcePoint" />
            <mxPoint x="200" y="210" as="targetPoint" />
          </mxGeometry>
        </mxCell>
        <mxCell id="oOVCkCozOhcgD0pRocem-2" value="" style="endArrow=none;html=1;rounded=0;" edge="1" parent="1">
          <mxGeometry width="50" height="50" relative="1" as="geometry">
            <mxPoint x="200" y="440" as="sourcePoint" />
            <mxPoint x="240" y="300" as="targetPoint" />
            <Array as="points">
              <mxPoint x="240" y="400" />
            </Array>
          </mxGeometry>
        </mxCell>
        <mxCell id="oOVCkCozOhcgD0pRocem-3" value="" style="ellipse;whiteSpace=wrap;html=1;" vertex="1" parent="1">
          <mxGeometry x="195" y="435" width="10" height="10" as="geometry" />
        </mxCell>
        <mxCell id="oOVCkCozOhcgD0pRocem-4" value="" style="ellipse;whiteSpace=wrap;html=1;" vertex="1" parent="1">
          <mxGeometry x="235" y="355" width="10" height="10" as="geometry" />
        </mxCell>
        <mxCell id="oOVCkCozOhcgD0pRocem-5" value="" style="ellipse;whiteSpace=wrap;html=1;" vertex="1" parent="1">
          <mxGeometry x="235" y="315" width="10" height="10" as="geometry" />
        </mxCell>
        <mxCell id="oOVCkCozOhcgD0pRocem-7" value="" style="ellipse;whiteSpace=wrap;html=1;" vertex="1" parent="1">
          <mxGeometry x="195" y="315" width="10" height="10" as="geometry" />
        </mxCell>
        <mxCell id="oOVCkCozOhcgD0pRocem-8" value="" style="ellipse;whiteSpace=wrap;html=1;" vertex="1" parent="1">
          <mxGeometry x="195" y="275" width="10" height="10" as="geometry" />
        </mxCell>
        <mxCell id="oOVCkCozOhcgD0pRocem-9" value="v1.0.0" style="text;html=1;strokeColor=none;fillColor=none;align=right;verticalAlign=middle;whiteSpace=wrap;rounded=0;" vertex="1" parent="1">
          <mxGeometry x="130" y="425" width="60" height="30" as="geometry" />
        </mxCell>
        <mxCell id="oOVCkCozOhcgD0pRocem-10" value="v2.0.0" style="text;html=1;strokeColor=none;fillColor=none;align=right;verticalAlign=middle;whiteSpace=wrap;rounded=0;" vertex="1" parent="1">
          <mxGeometry x="130" y="305" width="60" height="30" as="geometry" />
        </mxCell>
        <mxCell id="oOVCkCozOhcgD0pRocem-12" value="v3.0.0" style="text;html=1;strokeColor=none;fillColor=none;align=right;verticalAlign=middle;whiteSpace=wrap;rounded=0;" vertex="1" parent="1">
          <mxGeometry x="130" y="265" width="60" height="30" as="geometry" />
        </mxCell>
        <mxCell id="oOVCkCozOhcgD0pRocem-13" value="v1.0.0+0000000" style="text;html=1;strokeColor=none;fillColor=none;align=left;verticalAlign=middle;whiteSpace=wrap;rounded=0;" vertex="1" parent="1">
          <mxGeometry x="245" y="345" width="95" height="30" as="geometry" />
        </mxCell>
        <mxCell id="oOVCkCozOhcgD0pRocem-15" value="error" style="text;html=1;strokeColor=none;fillColor=none;align=right;verticalAlign=middle;whiteSpace=wrap;rounded=0;fontColor=#CC0000;" vertex="1" parent="1">
          <mxGeometry x="130" y="440" width="60" height="30" as="geometry" />
        </mxCell>
        <mxCell id="oOVCkCozOhcgD0pRocem-16" value="fix" style="text;html=1;strokeColor=none;fillColor=none;align=right;verticalAlign=middle;whiteSpace=wrap;rounded=0;fontColor=#4D9900;" vertex="1" parent="1">
          <mxGeometry x="130" y="319" width="60" height="30" as="geometry" />
        </mxCell>
        <mxCell id="oOVCkCozOhcgD0pRocem-17" value="" style="endArrow=none;dashed=1;html=1;rounded=0;" edge="1" parent="1">
          <mxGeometry width="50" height="50" relative="1" as="geometry">
            <mxPoint x="120" y="350" as="sourcePoint" />
            <mxPoint x="360" y="350" as="targetPoint" />
          </mxGeometry>
        </mxCell>
        <mxCell id="oOVCkCozOhcgD0pRocem-19" value="v1.0.0+0000001" style="text;html=1;strokeColor=none;fillColor=none;align=left;verticalAlign=middle;whiteSpace=wrap;rounded=0;" vertex="1" parent="1">
          <mxGeometry x="245" y="305" width="95" height="30" as="geometry" />
        </mxCell>
      </root>
    </mxGraphModel>
  </diagram>
</mxfile>
